<!--?xml version="1.0" encoding="utf-8"?-->
<!-- Generator: Adobe Illustrator 19.1.1, SVG Export Plug-In . SVG Version: 6.00 Build 0)  -->
<svg version="1.1" id="_x31_0" xmlns="http://www.w3.org/2000/svg" xmlns:xlink="http://www.w3.org/1999/xlink" x="0px" y="0px" viewBox="0 0 512 512" style="width: 512px; height: 512px; opacity: 1;" xml:space="preserve">
<style type="text/css">
	.st0{fill:#374149;}
</style>
<g>
	<path class="st0" d="M461.732,429.232c-13.862-23.889-32.087-35.999-54.147-35.999c-0.672,0-1.344,0-1.978,0.035
		c-1.043-2.047-2.235-4.282-3.54-6.631c6.522-24.15,9.84-67.902,6.745-97.192c-4.174-39.356-14.569-55.753-46.21-73.006
		c-2.72-1.454-5.588-2.869-8.57-4.213c-0.149-7.23-1.79-14.944-3.392-21.986c1.528-4.47,6.374-18.785,8.495-26.346
		c3.541-12.674,9.875-35.444,0.153-48.114c1.563-3.17,2.384-6.596,2.384-10.176c0-5.885-2.274-11.478-6.226-15.651
		c1.231-2.868,1.903-5.963,1.903-9.128c0-7.082-3.357-13.752-8.87-18c-0.298-6.971-3.729-13.38-9.317-17.441
		c-0.711-8.014-6.112-14.908-13.603-17.589c-3.169-7.046-10.172-11.891-17.999-12.15c-4.138-4.885-10.176-7.605-16.808-7.194
		c-2.126-2.31-4.771-4.174-7.674-5.366c-1.493-0.598-3.17-1.043-4.846-1.266c-3.802-0.598-7.605,0.035-11.071,1.602
		c-0.555-0.391-1.223-0.555-1.81-0.88c-0.618-0.343-1.25-0.652-1.907-0.926c-1.328-0.559-2.661-0.97-4.079-1.239
		c-0.567-0.11-1.134-0.191-1.712-0.254c-1.501-0.164-2.962-0.164-4.462-0.012c-0.586,0.062-1.169,0.141-1.743,0.25
		c-1.336,0.25-2.598,0.618-3.857,1.129c-0.899,0.352-1.762,0.77-2.602,1.247c-0.406,0.238-0.879,0.336-1.266,0.61
		c-2.61-1.118-5.405-1.716-8.273-1.716c-1.005,0-1.938,0.074-2.571,0.188c-1.79,0.222-3.466,0.668-4.994,1.266
		c-2.946,1.192-5.553,3.017-7.679,5.366c-6.592-0.371-12.669,2.31-16.803,7.194c-7.863,0.297-14.87,5.104-17.965,12.185
		c-7.526,2.685-12.896,9.578-13.603,17.554c-5.588,4.061-9.054,10.47-9.316,17.441c-5.553,4.248-8.867,10.918-8.867,18
		c0,3.165,0.634,6.26,1.899,9.128c-3.99,4.174-6.26,9.766-6.26,15.651c0,3.842,0.969,7.605,2.794,10.997
		c-8.832,12.857-2.685,34.955,0.782,47.366c2.086,7.453,6.932,21.838,8.46,26.312c-1.602,7.042-3.243,14.756-3.392,21.986
		c-2.982,1.305-5.85,2.719-8.534,4.174c-31.677,17.253-42.037,33.65-46.21,73.006c-3.091,29.29,0.188,73.042,6.745,97.192
		c-1.305,2.349-2.497,4.584-3.54,6.631c-0.669-0.035-1.306-0.035-1.974-0.035c-22.099,0-40.325,12.11-54.151,35.999
		c-17.066,29.438-8.457,60.931,1.454,74.906L57.314,512h397.372l5.558-7.862C470.192,490.163,478.801,458.669,461.732,429.232z
		 M445.073,493.367h-32.564l-8.64-0.042c0.774-2.744,1.477-5.264,2.001-7.706c0.594-2.685,1.043-5.37,1.493-8.05
		c0.406-2.685,0.707-5.37,1.004-8.089c0.559-5.737,0.817-11.028,0.782-16.101c0-1.75-1.602-3.13-3.65-3.13
		c-1.903,0-3.466,1.23-3.654,2.872c-0.523,4.732-1.379,9.762-2.61,15.354c-0.594,2.533-1.192,5.069-1.86,7.562
		c-0.746,2.536-1.493,5.034-2.388,7.57c-0.816,2.571-1.899,5.139-2.829,7.339c-0.262,0.707-0.598,1.379-0.934,2.047
		c-0.074,0.114-0.148,0.227-0.183,0.375h-21.927l-6.162-0.046c0.438-1.438,0.77-2.802,1.07-4.127
		c0.446-2.012,0.782-3.99,1.118-6.038c0.298-1.977,0.52-3.99,0.746-6.002c0.406-4.282,0.594-8.234,0.555-11.997
		c0-1.563-1.375-2.794-3.166-2.794c-1.68,0-3.021,1.079-3.204,2.533c-0.375,3.505-1.008,7.23-1.903,11.329
		c-0.446,1.899-0.891,3.763-1.379,5.627c-0.559,1.864-1.118,3.728-1.79,5.592c-0.594,1.899-1.375,3.763-2.086,5.405
		c-0.07,0.183-0.145,0.371-0.219,0.519c-48.523,0-96.71,0-96.71,0s-48.184,0-96.707,0c-0.07-0.187-0.149-0.375-0.223-0.558
		c-0.668-1.602-1.454-3.466-2.086-5.405c-0.673-1.825-1.192-3.689-1.751-5.553c-0.523-1.864-0.93-3.728-1.379-5.588
		c-0.895-4.138-1.528-7.863-1.938-11.368c-0.149-1.454-1.528-2.533-3.166-2.533c-1.79,0-3.208,1.231-3.208,2.794
		c0,3.763,0.187,7.714,0.598,11.997c0.188,2.013,0.45,4.026,0.746,6.038c0.336,2.013,0.669,3.99,1.118,5.964
		c0.246,1.145,0.547,2.325,0.868,3.501c0.043,0.25,0.102,0.454,0.141,0.711h-9.821l-18.359-0.301
		c-0.011-0.023-0.019-0.054-0.035-0.074c-0.336-0.668-0.668-1.34-0.969-2.082c-0.93-2.165-1.974-4.733-2.83-7.343
		c-0.894-2.497-1.602-4.994-2.348-7.491c-0.707-2.532-1.266-5.068-1.864-7.601c-1.227-5.592-2.087-10.622-2.606-15.354
		c-0.188-1.642-1.755-2.872-3.654-2.872c-2.051,0-3.65,1.379-3.65,3.13c-0.039,5.073,0.222,10.364,0.782,16.101
		c0.258,2.719,0.558,5.404,1.004,8.089c0.446,2.681,0.895,5.366,1.493,8.05c0.446,1.989,1.008,4.079,1.606,6.19
		c0.125,0.524,0.242,1.016,0.367,1.559H66.927c-6.894-9.726-13.118-33.091-0.558-54.784c12.895-22.208,26.608-26.718,38.05-26.718
		c4.767,0,9.167,0.782,12.931,1.379c0,0,4.771-10.883,12.856-24.56c-6.409-15.093-12.075-63.464-8.495-97.266
		c3.576-33.764,10.77-44.534,36.597-58.582c1.454-0.782,2.978-1.563,4.58-2.349c1.306,1.602,2.946,3.056,4.885,4.287
		c3.576,2.31,7.902,3.541,12.486,3.541c2.536,0,5.03-0.438,7.429-1.142c0.285-0.062,0.555-0.098,0.84-0.168
		c-0.558,24.592-1.153,58.114-1.153,81.17c0,20.907,0,42.486,8.422,59.63c10.102,20.532,29.778,30.52,60.185,30.52
		c30.45,0,50.126-9.988,60.227-30.52c8.418-17.143,8.418-38.722,8.418-59.63c0-21.841-0.535-52.978-1.063-77.117
		c-0.019-1.555-0.035-2.962-0.039-4.076c2.63,0.883,5.37,1.333,8.183,1.333c4.623,0,8.945-1.231,12.45-3.506
		c1.974-1.231,3.576-2.685,4.881-4.322c1.602,0.746,3.166,1.528,4.658,2.349c25.826,14.049,32.978,24.818,36.597,58.582
		c3.575,33.802-2.126,82.174-8.5,97.266c8.05,13.677,12.822,24.56,12.822,24.56c3.802-0.598,8.16-1.379,12.97-1.379
		c11.438,0,25.154,4.51,38.011,26.718C458.191,460.276,451.966,483.641,445.073,493.367z M216.366,36.253
		c0.41-0.074,0.786-0.114,1.157-0.114c1.489,0,2.869,0.45,4.026,1.196c1.078,0.633,1.973,1.563,2.532,2.646
		c0.524,0.934,0.856,1.899,0.969,2.982c-4.357,1.004-7.975,3.986-9.801,7.937c-2.161-0.633-3.872-2.274-4.771-4.362
		c-0.332-0.855-0.52-1.825-0.52-2.829c0-0.375,0-0.746,0.074-1.082c0.223-1.493,0.856-2.794,1.79-3.877
		c0.262-0.332,0.559-0.633,0.93-0.93c0.633-0.484,1.34-0.894,2.086-1.195C215.323,36.44,215.847,36.326,216.366,36.253z
		 M214.092,63.721c0,4.209-3.427,7.601-7.6,7.601c-3.205,0-5.964-2.013-7.042-4.846c-0.336-0.746-0.485-1.563-0.485-2.419
		c-0.038-0.114-0.038-0.226-0.038-0.336c0-0.97,0.187-1.903,0.523-2.724c1.078-2.829,3.838-4.842,7.042-4.842
		c3.318,0,6.15,2.122,7.155,5.142C213.948,62.04,214.092,62.861,214.092,63.721z M221.435,73.557
		c2.161,0.894,4.474,1.379,6.894,1.379c5.83,0,11.172-2.853,14.455-7.405c0.011-0.02,0.027-0.032,0.042-0.047
		c3.318,3.239,7.828,5.178,12.56,5.178c4.709,0,9.148-1.899,12.454-5.068c0.046-0.039,0.098-0.066,0.145-0.106
		c3.278,4.58,8.644,7.448,14.494,7.448c3.541,0,6.968-1.043,9.801-2.942c3.017,5.737,9.054,9.649,15.878,9.649
		c2.591,0,5.084-0.68,7.378-1.743c0.382-0.149,0.774-0.23,1.153-0.398v1.325c0,5.889,2.872,11.29,7.53,14.572
		c-2.052,2.942-3.205,6.483-3.205,10.207c0,0.844,0.074,1.649,0.215,2.458l-0.07-0.004c-0.258-0.172-0.989-0.59-2.196-1.337
		c-0.746-0.446-1.677-0.965-2.72-1.598c-1.043-0.637-2.2-1.418-3.615-2.012c-1.344-0.634-2.833-1.345-4.4-2.087
		c-1.528-0.821-3.353-1.266-5.138-1.938c-0.934-0.301-1.829-0.672-2.759-0.934c-1.008-0.188-1.974-0.41-2.982-0.634
		c-1.008-0.187-2.013-0.445-3.017-0.598l-3.13-0.258c-2.126-0.298-4.252,0.035-6.303,0.074c-1.078,0.074-2.083,0.41-3.126,0.559
		c-1.008,0.222-2.013,0.371-2.982,0.782c-0.969,0.336-1.903,0.633-2.833,0.969c-0.86,0.446-1.716,0.895-2.572,1.306
		c-1.641,0.821-3.094,1.864-4.435,2.833c-1.305,1.005-2.422,2.013-3.318,2.982c-0.969,0.97-1.677,1.899-2.31,2.607
		c-0.594,0.785-1.043,1.418-1.379,1.938c-0.258,0.446-0.406,0.669-0.406,0.669c-0.039,0.078-0.078,0.113-0.078,0.187
		c-0.93,1.677-0.297,3.802,1.379,4.737c1.677,0.89,3.802,0.297,4.733-1.38l0.074-0.187c0,0,0.113-0.188,0.301-0.559
		c0.148-0.226,0.446-0.707,0.856-1.379c0.449-0.598,0.969-1.341,1.676-2.126c0.707-0.782,1.567-1.677,2.532-2.533
		c1.009-0.821,2.126-1.75,3.431-2.458c0.672-0.375,1.306-0.746,2.013-1.196c0.707-0.258,1.454-0.559,2.235-0.891
		c0.746-0.375,1.567-0.523,2.423-0.746c0.855-0.187,1.641-0.519,2.532-0.633c1.754-0.114,3.544-0.524,5.37-0.375l2.754,0.078
		c0.895,0.07,1.83,0.297,2.724,0.41c0.891,0.148,1.786,0.293,2.681,0.406c0.895,0.187,1.754,0.484,2.575,0.707
		c1.712,0.558,3.427,0.821,4.916,1.528c1.493,0.633,2.946,1.23,4.248,1.75c1.379,0.489,2.536,1.196,3.541,1.719
		c1.043,0.555,1.977,1.04,2.685,1.415c1.524,0.782,2.383,1.23,2.383,1.23l0.114,0.07c0.734,0.368,1.598,0.145,2.09-0.43
		c0.012-0.004,0.02-0.004,0.031-0.012c0.86,2.908,2.462,5.55,4.549,7.636c0.074,2.942,0.11,6.112,0.11,9.692
		c0.039,3.353,0.039,7.042,0.039,11.141c0,4.584-0.114,9.094-0.41,13.529c-0.821,13.118-3.243,25.452-8.945,35.773
		c-1.044,1.903-2.197,3.728-3.462,5.478c-1.082,1.454-2.239,2.907-3.58,4.252c-0.371,0.446-0.821,0.89-1.266,1.34
		c-0.114,0.11-0.227,0.223-0.336,0.336c-1.938,1.899-4.1,3.65-6.448,5.252c-4.397,2.947-9.539,5.405-15.577,7.269
		c-8.347,2.571-18.374,3.986-30.45,3.986c-12.037,0-22.06-1.415-30.407-3.986c-6.038-1.825-11.18-4.322-15.577-7.269
		c-2.349-1.602-4.51-3.353-6.448-5.252c-0.113-0.113-0.222-0.226-0.336-0.336c-0.446-0.45-0.894-0.894-1.266-1.34
		c-1.34-1.345-2.497-2.798-3.579-4.252c-1.266-1.75-2.423-3.575-3.466-5.478c-5.737-10.321-8.12-22.654-8.98-35.773
		c-0.297-4.435-0.41-8.945-0.41-13.529c0-4.138,0-7.827,0.039-11.18c0-3.986,0.035-7.491,0.11-10.735
		c1.754-2.013,2.942-4.47,3.654-7.116c0.039,0.114,0.039,0.187,0.074,0.262c0.446,0.856,1.493,1.192,2.349,0.742l0.148-0.07
		c0,0,0.821-0.449,2.349-1.23c0.707-0.375,1.638-0.86,2.681-1.415c1.008-0.523,2.161-1.23,3.541-1.719
		c1.305-0.52,2.758-1.118,4.251-1.75c1.489-0.707,3.205-0.97,4.916-1.528c0.821-0.223,1.677-0.52,2.571-0.707
		c0.895-0.114,1.79-0.258,2.685-0.406c0.895-0.114,1.825-0.34,2.72-0.41l2.759-0.078c1.825-0.149,3.614,0.262,5.366,0.375
		c0.894,0.114,1.676,0.446,2.571,0.633c0.821,0.223,1.637,0.371,2.383,0.746c0.782,0.332,1.528,0.634,2.239,0.891
		c0.708,0.45,1.341,0.821,2.009,1.196c1.306,0.707,2.423,1.637,3.431,2.458c0.97,0.856,1.825,1.751,2.532,2.533
		c0.711,0.785,1.231,1.528,1.677,2.126c0.41,0.672,0.746,1.153,0.86,1.379c0.183,0.371,0.297,0.559,0.297,0.559l0.074,0.187
		c0.039,0,0.074,0.074,0.074,0.11c1.043,1.677,3.169,2.161,4.846,1.157c1.602-1.008,2.122-3.13,1.118-4.81
		c0,0-0.149-0.223-0.41-0.669c-0.336-0.519-0.782-1.153-1.379-1.938c-0.634-0.708-1.341-1.638-2.31-2.607
		c-0.895-0.969-2.013-1.977-3.318-2.982c-1.34-0.969-2.754-2.012-4.435-2.833c-0.856-0.41-1.711-0.86-2.571-1.306
		c-0.93-0.336-1.86-0.633-2.83-0.969c-0.969-0.41-1.977-0.559-2.982-0.782c-1.043-0.149-2.051-0.485-3.094-0.559
		c-2.087-0.038-4.209-0.371-6.335-0.074l-3.13,0.258c-1.005,0.153-2.013,0.41-3.017,0.598c-1.009,0.223-1.978,0.446-2.982,0.634
		c-0.934,0.262-1.829,0.633-2.723,0.934c-1.786,0.672-3.611,1.118-5.178,1.938c-1.566,0.742-3.056,1.454-4.396,2.087
		c-1.418,0.594-2.571,1.375-3.618,2.012c-1.04,0.634-1.974,1.153-2.72,1.598c-1.489,0.934-2.345,1.418-2.345,1.418
		c-0.074,0.051-0.106,0.102-0.16,0.157c-0.047,0.019-0.122,0.058-0.168,0.078c0.14-0.902,0.254-1.833,0.254-2.77
		c0-3.724-1.157-7.23-3.169-10.172c0-0.035,0-0.074,0-0.074c4.583-3.278,7.491-8.644,7.491-14.533c0-0.559-0.039-1.082-0.074-1.602
		c0.594-0.336,1.118-0.672,1.676-1.082c3.018,2.274,6.746,3.502,10.583,3.502C212.568,81.642,218.192,78.516,221.435,73.557z
		 M254.793,47.21c0.183-0.039,0.406-0.039,0.594-0.039c0.297,0,0.52,0,0.821,0.039c0,0,0,0,0.035,0
		c3.169,0.336,5.741,2.606,6.448,5.627c0.222,0.558,0.297,1.153,0.297,1.75v0.149c0,4.178-3.388,7.566-7.601,7.566
		c-4.099,0-7.491-3.318-7.566-7.453v-0.113c0-0.634,0.074-1.227,0.262-1.786C248.79,49.817,251.51,47.433,254.793,47.21z
		 M289.447,37.335c1.157-0.746,2.571-1.196,4.025-1.196c0.375,0,0.746,0.039,1.118,0.114c0.559,0.074,1.082,0.187,1.567,0.371
		c0.742,0.301,1.414,0.672,2.013,1.157h0.035c0.336,0.336,0.707,0.637,0.934,0.969c0.966,1.082,1.602,2.384,1.79,3.877
		c0.07,0.336,0.11,0.707,0.11,1.082c0,1.004-0.222,1.974-0.594,2.829c-0.806,2.075-2.548,3.694-4.713,4.358
		c-0.051,0.016-0.086,0.058-0.137,0.07c-1.794-3.947-5.33-6.925-9.688-7.968c0.114-1.078,0.446-2.083,0.97-3.017
		C287.474,38.898,288.369,37.968,289.447,37.335z M308.158,56.155c1.227,0,2.31,0.258,3.314,0.782
		c0.336,0.297,0.711,0.523,1.156,0.746c0,0,0,0,0,0.035c0.035,0.039,0.149,0.074,0.262,0.113c0,0,0.074,0.035,0.074,0.074
		c0.93,0.707,1.676,1.677,2.161,2.794c0,0,0,0,0,0.039c0.371,0.93,0.633,1.938,0.633,2.982c0,0.297,0,0.558-0.035,0.817
		c-0.113,0.786-0.301,1.493-0.598,2.2c-0.524,1.231-1.379,2.31-2.498,3.095c-1.23,0.93-2.758,1.489-4.47,1.489
		c-4.178,0-7.566-3.392-7.566-7.601c0-0.672,0.11-1.345,0.258-1.938C301.71,58.539,304.688,56.155,308.158,56.155z M292.01,226.595
		l-1.555,15.034c-2.872,3.767-15.358,18.374-34.474,18.374c-18.965,0-31.564-14.646-34.471-18.41l-1.528-15.057
		c10.438,3.357,22.474,5.068,35.999,5.068c12.086,0,22.888-1.438,32.497-4.107C289.65,227.193,290.87,226.935,292.01,226.595z
		 M199.821,229.929c0.446-0.41,0.86-0.821,1.231-1.266c2.122-2.422,3.802-5.142,5.103-8.089c1.306,0.746,2.685,1.418,4.065,2.09
		l2.274,22.322l0.668,0.969c0.633,0.97,16.135,23.366,42.818,23.366c26.722,0,42.189-22.396,42.857-23.366l0.633-0.969l2.314-22.322
		c1.337-0.653,2.669-1.309,3.935-2.028c0.043-0.02,0.082-0.039,0.125-0.058c1.27,2.942,2.982,5.662,5.108,8.085
		c0.371,0.446,0.782,0.856,1.231,1.266c0.519,24.818,1.266,62.795,1.266,88.246c0,40.587-0.262,78.97-57.468,78.97
		c-57.164,0-57.426-38.382-57.426-78.97C198.554,292.724,199.301,254.747,199.821,229.929z M344.493,159.869
		c-2.423,8.758-9.617,29.512-9.617,29.512c1.082,4.92,2.571,11.067,3.392,16.773c1.082,7.268,1.082,13.751-2.236,15.838
		c-1.156,0.746-2.646,1.118-4.326,1.118c-0.633,0-1.302-0.074-2.009-0.188c-0.821-0.148-1.715-0.41-2.536-0.782
		c-0.039,0-0.074-0.035-0.074-0.035c-1.379-0.598-2.758-1.493-3.95-2.684c-3.056-2.947-5.218-7.793-4.807-14.834
		c0.93-1.043,1.826-2.122,2.646-3.205c0,0.708,0.149,1.419,0.559,2.052c0.41,0.633,0.821,1.379,1.231,2.122
		c1.676,2.834,3.575,5.702,6.221,3.951c1.157-0.782,1.454-3.095,1.306-5.924c-0.223-5.069-1.825-11.739-2.235-13.53
		c8.683-17.964,8.722-38.386,8.722-50.868c0-3.318,0-6.334-0.038-9.168c0.969-2.383,2.719-5.702,5.068-6.784
		c0.594-0.035,1.153-0.148,1.677-0.332c0.336,0.035,0.672,0.11,1.008,0.184C353.696,126.289,347.4,149.505,344.493,159.869z
		 M341.66,112.65c-0.711,0.298-1.528,0.45-2.349,0.52h-0.375c-0.852,0-1.602-0.11-2.345-0.371c-3.056-0.969-5.256-3.802-5.256-7.194
		c0-3.091,1.864-5.737,4.51-6.929c0.934-0.41,1.974-0.633,3.091-0.633c4.138,0,7.566,3.388,7.566,7.562
		C346.502,108.809,344.493,111.533,341.66,112.65z M334.876,88.391h-0.298c-4.212,0-7.566-3.392-7.566-7.566
		c0-0.97,0.149-1.903,0.524-2.759c0.93-2.349,2.942-4.134,5.475-4.658c0.484-0.113,1.008-0.183,1.566-0.183
		c0.634,0,1.227,0.07,1.826,0.258c3.318,0.821,5.74,3.767,5.74,7.343C342.144,84.925,338.936,88.203,334.876,88.391z
		 M326.826,56.269c3.654,0.519,6.483,3.685,6.483,7.452c0,0.969-0.184,1.864-0.52,2.72c-1.082,0.148-2.086,0.371-3.056,0.742
		c-2.27,0.821-4.286,2.165-5.814,3.915c-1.005-0.222-1.899-0.672-2.685-1.23c0.637-1.266,1.047-2.607,1.23-4.026
		c0.153-0.707,0.153-1.379,0.153-2.122c0-1.681-0.262-3.282-0.821-4.771c-0.113-0.45-0.297-0.895-0.562-1.306
		c1.27-0.93,2.798-1.489,4.514-1.489C326.118,56.155,326.49,56.19,326.826,56.269z M323.512,49.485
		c-1.493,0.203-2.849,0.718-4.134,1.363c-0.887,0.352-1.778,0.727-2.755,1.188c-0.477-0.367-0.989-0.695-1.497-0.989
		c-0.039-0.034-0.039-0.034-0.074-0.034c-1.047-0.97-1.642-2.349-1.642-3.842c0-0.332,0.039-0.594,0.074-0.856
		c0.336-2.196,1.938-3.877,4.026-4.361c0.371-0.11,0.785-0.149,1.191-0.149c2.947,0,5.33,2.384,5.33,5.366
		C324.031,47.992,323.844,48.777,323.512,49.485z M312.07,36.925c-1.086,0.68-1.974,1.582-2.759,2.567
		c-0.539,0.551-1.074,1.118-1.641,1.758c-0.536-3.158-2.075-5.994-4.322-8.054c0.188-0.485,0.336-0.97,0.485-1.489
		c0.856-0.559,1.864-0.895,2.942-0.895c2.946,0,5.37,2.384,5.37,5.326C312.144,36.405,312.105,36.701,312.07,36.925z
		 M296.528,29.581c-1.008-0.222-2.048-0.332-3.056-0.332c-2.345,0-4.549,0.559-6.522,1.563c-0.222-0.598-0.332-1.231-0.332-1.864
		c0-2.982,2.384-5.33,5.326-5.33c2.834,0,5.108,2.2,5.256,4.994C296.938,28.909,296.716,29.249,296.528,29.581z M289.447,53.99
		c0.375,0.934,0.598,1.938,0.598,3.021c0,0.262,0,0.484-0.039,0.707c-0.074,0.672-0.183,1.344-0.449,1.903
		c-1.04,2.903-3.838,4.955-7.078,4.955c-4.174,0-7.566-3.392-7.566-7.566v-0.149c0.035-3.353,2.31-6.186,5.44-7.116
		c0.633-0.226,1.379-0.301,2.126-0.301c0.598,0,1.153,0.074,1.712,0.187C286.54,50.192,288.478,51.793,289.447,53.99z
		 M276.219,27.385c-1.454-0.969-3.095-1.602-4.846-1.938c-0.035,0-0.035,0-0.035,0c-0.711-0.894-1.157-2.051-1.157-3.282
		c0-2.942,2.422-5.326,5.33-5.326c2.942,0,5.326,2.384,5.326,5.326C280.838,24.849,278.826,27.089,276.219,27.385z M268.505,32.005
		c2.087,0,3.951,0.86,5.326,2.2c1.38,1.379,2.2,3.278,2.2,5.366c0,4.174-3.388,7.601-7.526,7.601c-0.297,0-0.523,0-0.821-0.035
		h-0.038c-1.489-2.498-3.763-4.474-6.444-5.666c-0.227-0.555-0.302-1.227-0.302-1.899c0-4.138,3.318-7.491,7.453-7.566H268.505z
		 M255.386,25.482c-2.907,0-5.291-2.384-5.291-5.33c0-2.903,2.384-5.291,5.291-5.291c2.942,0,5.366,2.388,5.366,5.291
		C260.752,23.098,258.329,25.482,255.386,25.482z M249.869,41.36c-1.758,0.746-3.251,1.915-4.584,3.247
		c-0.891,0.782-1.77,1.598-2.622,2.552c-0.054,0-0.121,0.012-0.172,0.012c-4.174,0-7.566-3.427-7.566-7.601
		c0-2.087,0.86-3.986,2.239-5.366c1.341-1.34,3.24-2.2,5.326-2.2h0.149c4.138,0.074,7.417,3.427,7.417,7.566
		C250.056,40.203,249.982,40.837,249.869,41.36z M239.622,25.447c-1.751,0.297-3.392,0.97-4.846,1.938
		c-2.61-0.297-4.619-2.536-4.619-5.221c0-2.942,2.384-5.326,5.291-5.326c2.946,0,5.366,2.384,5.366,5.326
		C240.814,23.396,240.369,24.553,239.622,25.447z M230.603,49.781c0,0,0,0,0.039,0c3.055,0.969,5.252,3.838,5.252,7.23
		c0,0.039,0,0.039,0,0.074c-0.035,4.135-3.388,7.492-7.566,7.492c-3.166,0-5.886-1.938-7.003-4.733
		c-0.301-0.633-0.45-1.305-0.523-2.051c-0.039-0.258-0.039-0.52-0.039-0.782c0-1.082,0.187-2.013,0.562-2.943
		c0.97-2.274,3.017-3.99,5.475-4.47c0.484-0.078,1.008-0.152,1.528-0.152C229.114,49.445,229.896,49.558,230.603,49.781z
		 M224.058,30.773c-0.012,0.023-0.016,0.043-0.028,0.066c-1.973-1.035-4.166-1.59-6.506-1.59c-1.043,0-2.086,0.11-3.056,0.332
		c-0.222,0.039-0.445,0.078-0.672,0.188c-0.035-0.262-0.074-0.559-0.074-0.821c0-0.114,0-0.262,0.039-0.336
		c0.188-2.794,2.458-4.994,5.291-4.994c2.942,0,5.33,2.349,5.33,5.33C224.382,29.554,224.233,30.195,224.058,30.773z
		 M207.164,31.708c0.109,0.519,0.262,1.004,0.484,1.489c-1.344,1.23-2.348,2.79-3.138,4.478c-0.614,1.122-1.176,2.286-1.626,3.517
		c-0.966-1.712-2.349-3.208-3.958-4.267c-0.035-0.223-0.074-0.52-0.074-0.786c0-2.942,2.422-5.326,5.33-5.326
		C205.3,30.813,206.343,31.149,207.164,31.708z M193.486,41.954c2.086,0.484,3.689,2.2,4.025,4.4
		c0.035,0.258,0.074,0.52,0.074,0.817c0,2.349-1.528,4.326-3.654,5.033c-1.86-1.418-4.026-2.387-6.444-2.719
		c-0.336-0.708-0.559-1.493-0.559-2.314c0-2.982,2.423-5.366,5.366-5.366C192.705,41.805,193.111,41.845,193.486,41.954z
		 M178.953,73.67c2.048,0.742,3.725,2.348,4.51,4.396c0.333,0.856,0.52,1.79,0.52,2.759c0,2.919-1.68,5.431-4.103,6.69
		c-0.039,0.02-0.066,0.055-0.11,0.074c-0.821,0.41-1.727,0.676-2.681,0.762c-0.262,0.039-0.449,0.039-0.707,0.039
		c-4.138,0-7.566-3.392-7.566-7.566c0-3.576,2.458-6.522,5.737-7.343c0.598-0.187,1.196-0.258,1.829-0.258
		C177.273,73.225,178.168,73.408,178.953,73.67z M176.081,99.196c2.126,1.344,3.541,3.728,3.541,6.409
		c0,2.946-1.712,5.592-4.209,6.784c-0.86,0.41-1.79,0.711-2.759,0.746c-0.222,0.035-0.371,0.035-0.598,0.035
		c-1.078,0-2.048-0.184-2.943-0.559c-2.719-1.191-4.618-3.872-4.618-7.006c0-4.174,3.388-7.562,7.562-7.562
		C173.549,98.043,174.928,98.489,176.081,99.196z M167.476,123.085c0.148,0,0.258-0.035,0.371-0.074
		c0.856,0.222,1.75,0.375,2.646,0.41c2.196,1.192,3.763,4.286,4.732,6.558c-0.039,2.833-0.039,5.889-0.039,9.206
		c0,12.446,0.039,32.83,8.722,50.755c-0.519,2.09-2.086,8.722-2.235,13.678c-0.113,2.684,0.223,4.881,1.341,5.627
		c2.646,1.75,4.549-1.192,6.225-4.061c0.41-0.711,0.821-1.418,1.227-2.051c0.226-0.356,0.278-0.786,0.355-1.2
		c0.07-0.172,0.134-0.289,0.219-0.488c0.84,1.058,1.681,2.118,2.595,3.142c0.449,7.006-1.677,11.814-4.733,14.795
		c-0.402,0.398-0.832,0.707-1.254,1.039c-0.457,0.356-0.934,0.684-1.43,0.973c-0.434,0.25-0.856,0.52-1.301,0.711
		c-0.039,0-0.074,0.035-0.074,0.035c-0.86,0.337-1.681,0.598-2.498,0.782c-0.711,0.114-1.418,0.188-2.086,0.188
		c-1.642,0-3.134-0.371-4.326-1.118c-3.278-2.087-3.318-8.535-2.235-15.803c0.821-5.702,2.31-11.888,3.392-16.808
		c0,0-7.155-20.754-9.613-29.512C164.568,149.505,158.269,126.289,167.476,123.085z M187.492,56.53
		c0.852,0.266,1.633,0.672,2.329,1.207c0.242,0.188,0.477,0.391,0.699,0.61c0.309,0.309,0.622,0.614,0.879,0.974
		c0.41,0.523,0.708,1.082,0.895,1.676c-0.149,0.895-0.262,1.794-0.262,2.724c0,0.558,0.039,1.078,0.113,1.602
		c0.035,0.406,0.11,0.782,0.149,1.153c-0.856,2.274-2.794,3.99-5.221,4.622c-1.489-1.641-3.388-2.946-5.514-3.802
		c-1.079-0.41-2.197-0.668-3.354-0.82c-0.371-0.856-0.519-1.786-0.519-2.755c0-3.767,2.794-6.933,6.444-7.452
		c0.375-0.078,0.746-0.114,1.118-0.114c0.465,0,0.906,0.082,1.352,0.16C186.906,56.373,187.198,56.44,187.492,56.53z" style="fill: rgb(75, 75, 75);"></path>
	<path class="st0" d="M250.017,326.116c0.153-2.051-1.414-3.842-3.462-3.954c-2.086-0.11-3.837,1.458-3.95,3.505
		c-0.297,4.994-7.304,18.262-35.741,20.086c-2.048,0.149-3.615,1.899-3.462,3.951c0.109,1.974,1.75,3.501,3.689,3.501h0.262
		C239.958,351.118,249.536,334.573,250.017,326.116z" style="fill: rgb(75, 75, 75);"></path>
	<path class="st0" d="M304.653,353.205h0.222c1.978,0,3.614-1.527,3.728-3.501c0.149-2.052-1.414-3.802-3.466-3.951
		c-28.472-1.825-35.44-15.092-35.737-20.086c-0.114-2.047-1.864-3.614-3.951-3.505c-2.051,0.113-3.614,1.903-3.505,3.954
		C262.467,334.573,272.006,351.118,304.653,353.205z" style="fill: rgb(75, 75, 75);"></path>
	<path class="st0" d="M227.086,374.245h-0.004l0.004,0.004c-0.027,0.02-0.125,0.082-0.133,0.09l1.078,1.49l0.922,1.262l0.086,0.145
		c0,0,0.011-0.008,0.015-0.008l0.094,0.129c0.038-0.034,0.894-0.672,2.61-1.527h48.48c1.72,0.894,2.575,1.493,2.61,1.527
		l2.102-2.887l0,0l0,0l0.098-0.13c-0.41-0.301-10.434-7.456-29.07-7.456c-18.062,0-27.961,6.698-28.891,7.362H227.086z" style="fill: rgb(75, 75, 75);"></path>
	<path class="st0" d="M346.103,433.48l-13.123-15.046l-5.682-6.565l-8.163,2.884l-3.201,1.118
		c-4.404-3.599-10.645-6.479-18.57-6.479h-26.651c-5.76,0-10.883,2.322-14.725,6.002c-3.759-3.681-8.964-6.002-14.646-6.002h-26.73
		c-7.925,0-14.088,2.88-18.57,6.479l-3.201-1.118l-8.163-2.802l-5.682,6.482l-13.122,15.046l-8.418,9.598l-1.18,1.313l0.019,0.012
		l-0.106,0.121l12.322,8.086c1.043,0.719,10.645,6.96,16.409,10.004c15.925,8.804,33.053,13.282,50.74,13.282
		c9.766,0,16.166-2.478,20.328-6.241c4.162,3.763,10.645,6.241,20.407,6.241c17.609,0,34.814-4.478,50.982-13.442
		c5.443-2.884,15.045-9.125,16.166-9.844l10.68-7.054l1.446-0.926l-0.016-0.015l0.137-0.09L346.103,433.48z M336.482,441.893
		c-0.098,0.062-10.012,6.565-15.346,9.355c-1.638,0.906-3.275,1.727-4.916,2.521c-0.501,0.242-1.001,0.484-1.505,0.719
		c-3.075,1.422-6.147,2.634-9.207,3.677c-0.805,0.274-1.606,0.551-2.414,0.805c-2.923,0.911-5.823,1.638-8.699,2.232
		c-0.852,0.179-1.704,0.355-2.556,0.508c-3.013,0.531-5.986,0.89-8.914,1.11c-0.688,0.05-1.375,0.102-2.063,0.137
		c-1.501,0.074-2.998,0.137-4.466,0.137c-7.922,0-12.005-1.524-13.764-5.682c-0.801-1.762-1.122-3.923-1.122-6.803
		c0-9.363,0.962-10.164,0.962-10.164s0.078,0,0.16-0.082c0.399,0,1.282-0.16,2.322-0.16c1.918,0,4.24,0.562,4.322,3.525
		c0.718,6.401,4.162,8.722,7.842,8.722c2.162,0,4.401-0.802,6.163-2.001c4.962-3.361,5.201-14.088-2.724-15.768
		c-1.918-0.481-4.08-0.559-6.162-0.559c-6.159,0-11.923,1.282-11.923,1.282v-4.962c0-4.565,3.682-8.246,8.242-8.246h26.651
		c10.646,0,14.647,8.644,14.647,8.644l11.364-4.002l11.602,13.298L336.482,441.893z M229.493,462.855
		c-3.302-0.23-6.658-0.63-10.058-1.254c-0.11-0.023-0.219-0.047-0.328-0.066c-3.626-0.684-7.296-1.598-10.993-2.786
		c-0.086-0.027-0.172-0.058-0.258-0.086c-3.606-1.168-7.233-2.594-10.867-4.29c-0.321-0.153-0.641-0.305-0.958-0.461
		c-1.731-0.829-3.462-1.704-5.19-2.662c-5.287-2.763-15.034-9.152-15.315-9.336c-0.015-0.008-0.038-0.027-0.046-0.039l13.122-15.037
		l11.364,4.002c0,0,4.08-8.644,14.646-8.644h26.73c4.482,0,8.163,3.681,8.163,8.246v4.185l-0.031,0.77
		c-0.16-0.035-5.818-1.274-11.813-1.274c-2.162,0-4.322,0.078-6.241,0.559c-8.003,1.68-7.683,12.407-2.724,15.768
		c1.762,1.199,4.002,2.001,6.162,2.001c3.682,0,7.124-2.322,7.843-8.722c0.082-2.962,2.403-3.525,4.322-3.525
		c0.961,0,1.84,0.16,2.242,0.16c0.161,0.082,0.238,0.082,0.238,0.082s0.962,0.801,0.962,10.164c0,2.88-0.32,5.041-1.122,6.803
		c-1.758,4.158-5.842,5.682-13.685,5.682c-1.552,0-3.122-0.058-4.702-0.145C230.47,462.925,229.982,462.89,229.493,462.855z" style="fill: rgb(75, 75, 75);"></path>
	<path class="st0" d="M167.698,416.707l3.65-3.911c1.191-1.302,2.387-2.646,3.693-4.209l2.606-3.17l-3.244-3.99l-3.13-3.353
		l-2.755-4.099c-0.86-1.454-1.606-2.982-2.426-4.51c-0.856-1.454-1.415-3.165-2.162-4.767c-0.707-1.567-1.34-3.243-1.899-4.92
		c-0.558-1.715-1.266-3.353-1.715-5.069c-1.078-3.466-2.048-6.932-2.907-10.434c-0.891-3.502-1.638-7.081-2.345-10.661
		c-0.708-3.575-1.341-7.155-1.899-10.766c-1.122-7.23-2.052-14.538-2.646-21.802c-0.074-0.934-0.86-1.681-1.79-1.681
		c-1.008,0-1.829,0.786-1.829,1.79c-0.035,7.453,0.262,14.87,0.786,22.286c0.258,3.728,0.594,7.453,1.005,11.142
		c0.41,3.728,0.855,7.417,1.489,11.141c0.558,3.693,1.27,7.418,2.086,11.106c0.336,1.864,0.899,3.693,1.345,5.557
		c0.445,1.86,0.969,3.689,1.602,5.514c0.672,1.825,1.118,3.689,1.938,5.514c0.782,1.829,1.489,3.654,2.384,5.444l2.982,5.365
		l1.118,1.415c-0.149,0.222-0.297,0.449-0.446,0.672l-2.982,4.248l-6.077,8.495l-12.446,16.96c-0.782,1.039-0.672,2.497,0.262,3.427
		c1.044,1.004,2.685,0.969,3.69-0.039l14.76-15.057L167.698,416.707z" style="fill: rgb(75, 75, 75);"></path>
	<path class="st0" d="M370.281,436.016l-12.411-16.96l-6.077-8.495l-2.978-4.248c-0.149-0.223-0.298-0.45-0.45-0.672l1.082-1.415
		l3.017-5.365c0.86-1.79,1.567-3.615,2.349-5.444c0.856-1.825,1.305-3.689,1.938-5.514c0.672-1.826,1.192-3.654,1.637-5.514
		c0.45-1.864,1.009-3.693,1.345-5.557c0.821-3.689,1.528-7.414,2.086-11.106c0.594-3.724,1.043-7.413,1.489-11.141
		c0.41-3.689,0.711-7.414,1.009-11.142c0.218-3.388,0.222-6.784,0.355-10.176c0.035-0.894,0.066-1.798,0.094-2.677
		c0.098-3.146,0.333-6.28,0.333-9.434c-0.035-0.93-0.746-1.715-1.677-1.79c-1.008-0.074-1.864,0.672-1.938,1.681
		c-0.598,7.264-1.528,14.572-2.646,21.802c-0.558,3.61-1.192,7.19-1.903,10.766c-0.742,3.58-1.45,7.159-2.345,10.661
		c-0.859,3.502-1.864,6.968-2.907,10.434c-0.485,1.716-1.157,3.354-1.711,5.069c-0.563,1.677-1.196,3.353-1.938,4.92
		c-0.711,1.602-1.27,3.314-2.126,4.767c-0.82,1.528-1.566,3.056-2.422,4.51l-2.759,4.099l-3.13,3.353l-3.239,3.99l2.606,3.17
		c1.266,1.563,2.462,2.907,3.689,4.209l3.654,3.911l7.303,7.64l14.721,15.057c0.895,0.895,2.349,1.043,3.427,0.262
		c1.157-0.856,1.418-2.498,0.559-3.65H370.281z" style="fill: rgb(75, 75, 75);"></path>
	<path class="st0" d="M273.945,134.862c0.558-0.038,1.153-0.301,1.454-0.859l1.563-2.606l11.407-0.227
		c5.029,1.419,17.475-0.035,27.574-4.51h1.493c0.969-0.035,1.676-0.817,1.676-1.746c0-0.973-0.782-1.716-1.75-1.716l-37.781,0.669
		c-1.372,0.023-2.63,0.754-3.334,1.934l-3.83,6.451c-0.446,0.821-0.188,1.865,0.633,2.349
		C273.35,134.789,273.648,134.862,273.945,134.862z" style="fill: rgb(75, 75, 75);"></path>
	<path class="st0" d="M236.902,134.675c0.297,0.52,0.895,0.786,1.454,0.786c0.297,0,0.594-0.078,0.93-0.266
		c0.782-0.52,1.008-1.563,0.484-2.384l-4.025-6.295c-0.742-1.161-2.032-1.849-3.407-1.826l-37.774,0.669
		c-0.969,0-1.711,0.782-1.676,1.75c0,0.934,0.785,1.677,1.754,1.677l1.454-0.035c10.246,4.099,22.732,5.138,27.726,3.575
		l11.402-0.222L236.902,134.675z" style="fill: rgb(75, 75, 75);"></path>
	<path class="st0" d="M255.981,98.117c4.474,0,8.128-3.615,8.128-8.09c0-4.47-3.654-8.12-8.128-8.12c-4.471,0-8.086,3.65-8.086,8.12
		C247.895,94.502,251.51,98.117,255.981,98.117z M255.981,85.37c2.61,0,4.658,2.086,4.658,4.658c0,2.61-2.047,4.658-4.658,4.658
		c-2.572,0-4.619-2.048-4.619-4.658C251.362,87.457,253.409,85.37,255.981,85.37z" style="fill: rgb(75, 75, 75);"></path>
	<path class="st0" d="M274.316,164.676c-0.035,0.035-0.074,0.074-0.074,0.074l-0.11,0.035c-0.074,0.039-0.484,0-1.082-0.183
		c-0.336-0.375-0.672-0.746-1.078-1.157c-0.485-0.485-1.266-1.192-2.388-1.563c-0.378-0.137-0.813-0.012-1.23-0.047
		c-0.161-0.015-0.301-0.078-0.462-0.078c-0.125,0-0.238,0.038-0.359,0.046c-0.332,0.024-0.657-0.121-0.966-0.035
		c-0.707,0.149-1.34,0.41-1.864,0.634c-3.278,0.148-6.038,0.894-8.312,1.641c-3.055-0.821-5.885-1.528-9.093-1.641
		c-0.634-0.298-1.227-0.485-1.861-0.634c-0.324-0.086-0.649,0.059-0.981,0.035c-0.121-0.008-0.242-0.046-0.363-0.046
		c-0.164,0-0.309,0.062-0.469,0.078c-0.418,0.035-0.848-0.09-1.243,0.047c-1.082,0.371-1.864,1.078-2.348,1.563
		c-0.45,0.41-0.786,0.782-1.082,1.157c-0.594,0.183-1.005,0.222-1.118,0.183l-0.11-0.035c0,0,0,0-0.039-0.074
		c-0.074-0.074-0.223-0.337-0.297-0.782c-0.114-0.711-0.149-1.642-0.074-2.537c0-0.262,0.035-0.523,0.074-0.746
		c0-0.222,0.035-0.445,0.035-0.633l0.226-1.454c0.222-1.192,0.856-2.72,2.681-3.166c1.418-0.414,3.278-0.262,5.182,0.406h0.149
		c0.484,0.153,1.043-0.11,1.305-0.668c0.035-0.074,0.035-0.114,0.035-0.153c0.485-0.332,0.821-0.89,0.856-1.489l2.426-30.634
		c0.035-0.406-0.078-0.82-0.336-1.153c-0.301-0.336-0.672-0.523-1.118-0.558c-0.41-0.039-0.859,0.074-1.195,0.336
		c-0.336,0.297-0.52,0.668-0.559,1.078l-2.986,27.629l-0.309,2.743c-0.684-0.145-1.309-0.031-1.962-0.055
		c-0.125-0.003-0.258-0.038-0.383-0.038c-0.09,0-0.179,0.019-0.27,0.023c-0.473,0.012-0.973-0.122-1.43-0.039
		c-1.305,0.222-2.497,0.856-3.318,1.79c-0.821,0.817-1.414,1.899-1.75,3.279l-0.375,1.528c-0.035,0.297-0.11,0.558-0.149,0.816
		c-0.039,0.262-0.113,0.524-0.148,0.786c-0.149,0.93-0.258,2.087-0.114,3.466c0.039,0.481,0.187,1.266,0.562,2.048
		c0.406,0.821,1.227,1.567,2.087,1.903c0.891,0.332,1.676,0.297,2.384,0.297c0.558-0.074,1.043-0.223,1.528-0.336l0.336-0.074
		c0.332-0.074,0.633-0.262,0.82-0.52l0.446-0.488c0.262-0.332,0.559-0.634,0.821-0.856h3.502c0.149,0,0.262,0.039,0.446,0
		c2.833,0.074,6.042,0.856,8.796,1.563c0.074,0.039,0.114,0.039,0.188,0.078l0.149,0.035c0.113,0.034,0.262,0.113,0.445,0.074
		c0.188,0,0.41,0,0.559-0.074c0.078,0,0.149-0.035,0.187-0.035h0.074c3.13-1.009,5.776-1.567,8.015-1.642h1.356l2.88,0.336
		c0.164,0.184,0.321,0.348,0.531,0.559l0.371,0.449c0.227,0.258,0.524,0.446,0.86,0.52l0.297,0.074
		c0.485,0.113,1.009,0.262,1.567,0.336h0.559c0.519,0,1.153-0.074,1.825-0.297c0.821-0.336,1.641-1.082,2.051-1.903
		c0.41-0.782,0.52-1.567,0.594-2.048c0.148-1.344,0.039-2.462-0.149-3.466l-0.113-0.786c-0.074-0.258-0.11-0.519-0.149-0.855
		l-0.406-1.489c-0.114-0.458-0.41-0.696-0.57-1.09c-0.18-0.446-0.398-0.86-0.645-1.223c-0.195-0.29-0.262-0.727-0.504-0.966
		c-0.852-0.934-2.009-1.567-3.354-1.79c-0.445-0.082-0.946,0.051-1.406,0.035c-0.09,0-0.176-0.019-0.266-0.019
		c-0.512,0-1.126,0.038-1.727,0.074c-0.215,0.035-0.402-0.027-0.622,0.02l-3.282-30.372c-0.035-0.41-0.262-0.821-0.594-1.078
		c-0.301-0.262-0.711-0.375-1.122-0.336c-0.445,0-0.855,0.222-1.114,0.558c-0.301,0.298-0.45,0.746-0.41,1.153l2.458,30.708
		c0.074,0.598,0.371,1.122,0.821,1.379c0.035,0.074,0.035,0.114,0.074,0.149c0.074,0.301,0.262,0.524,0.52,0.637
		c0.262,0.149,0.563,0.149,0.786,0.07h0.11c1.899-0.668,3.802-0.821,5.217-0.406c1.829,0.446,2.462,1.974,2.685,3.166l0.187,1.418
		c0.035,0.223,0.035,0.446,0.074,0.668c0.035,0.262,0.035,0.485,0.074,0.746c0.074,0.895,0.039,1.79-0.114,2.537
		C274.503,164.339,274.355,164.601,274.316,164.676z" style="fill: rgb(75, 75, 75);"></path>
	<path class="st0" d="M275.547,181.557h-0.035c-0.45,0.11-2.052-0.711-2.759-1.082c-2.048-1.005-4.658-2.31-8.089-2.646
		c-4.174-0.524-7.078,0.894-8.683,1.977c-1.563-1.082-4.471-2.501-8.645-1.977c-3.43,0.336-6.038,1.641-8.159,2.685
		c-1.493,0.742-2.388,1.118-2.724,1.043c-1.227-0.188-2.422,0.52-2.829,1.75c-0.375,1.231,0.183,2.498,1.34,3.095
		c0.97,0.446,2.235,1.118,2.982,1.786c0.074,1.602,0.634,2.982,1.716,4.174c0.297,0.301,0.594,0.598,0.965,0.821
		c0.375,0.336,0.821,0.598,1.27,0.782c1.75,0.895,4.06,1.341,6.894,1.341c0.222,0,0.445-0.035,0.672-0.035
		c4.619-0.114,5.737-0.074,5.924-0.035c0.446,0.109,0.895,0.07,1.118,0c0.297-0.039,1.414-0.078,6.073,0.035
		c3.095,0.074,5.631-0.371,7.53-1.306c0.485-0.222,0.93-0.481,1.306-0.782c0.371-0.262,0.668-0.52,0.965-0.821
		c1.047-1.192,1.606-2.606,1.642-4.174c0.336-0.262,1.157-0.93,3.056-1.825c1.082-0.558,1.641-1.825,1.305-3.095
		C277.934,182.077,276.739,181.369,275.547,181.557z M271.569,184.676c-0.578,0.442-1.059,0.914-1.387,1.466
		c-1.493-0.97-3.615-2.052-5.924-2.052c-2.314,0-3.877,0.895-5.108,1.602c-1.043,0.562-1.903,1.043-3.169,1.043
		c-1.227,0-2.087-0.481-3.166-1.043c-1.231-0.707-2.798-1.602-5.034-1.602c-2.345,0-4.47,1.082-5.959,2.087
		c-0.371-0.551-0.887-1.032-1.438-1.513l0.055-0.046c0.234-0.094,0.473-0.168,0.711-0.301c1.825-0.934,3.95-1.978,6.67-2.314
		c4.584-0.485,6.745,2.047,6.858,2.2c0.297,0.41,0.782,0.633,1.302,0.633c0.484,0.035,1.008-0.222,1.379-0.633
		c0.074-0.114,2.274-2.685,6.823-2.2c2.754,0.336,4.842,1.379,6.706,2.314c0.176,0.117,0.379,0.187,0.566,0.266L271.569,184.676z
		 M269.087,189.615c-0.676,0.634-2.391,1.517-6.432,1.407c-2.017-0.035-3.58-0.11-4.737-0.11c-0.82,0-1.454,0.035-1.938,0.074
		c-1.118-0.074-3.053-0.039-6.632,0.035c-2.36,0.062-3.846-0.215-4.869-0.578c-0.578-0.238-1.15-0.485-1.528-0.875
		c0.981-0.786,2.884-2.013,4.83-2.013c1.345,0,2.2,0.485,3.282,1.082c0.035,0.035,0.074,0.035,0.11,0.035
		c1.266,0.707,2.685,1.493,4.807,1.493c2.126,0,3.544-0.746,4.771-1.454c0.039,0,0.039-0.039,0.074-0.039
		c1.118-0.598,2.051-1.118,3.431-1.118c1.91,0,3.77,1.215,4.732,1.974C269.017,189.557,269.06,189.588,269.087,189.615z" style="fill: rgb(75, 75, 75);"></path>
</g>
</svg>
